<mxfile host="app.diagrams.net" modified="2023-11-13T18:26:36.580Z" agent="Mozilla/5.0 (Windows NT 10.0; Win64; x64) AppleWebKit/537.36 (KHTML, like Gecko) Chrome/119.0.0.0 Safari/537.36" etag="DV5tE64HU9ZRjEbajFKJ" version="22.1.0" type="device">
  <diagram name="Sida-1" id="gHIdNlV95WZua8LXSBWu">
    <mxGraphModel dx="2314" dy="1142" grid="1" gridSize="10" guides="1" tooltips="1" connect="1" arrows="1" fold="1" page="1" pageScale="1" pageWidth="827" pageHeight="1169" math="0" shadow="0">
      <root>
        <mxCell id="0" />
        <mxCell id="1" parent="0" />
        <mxCell id="GCc7rd72Zr2Uhg-i7fqf-11" style="edgeStyle=orthogonalEdgeStyle;rounded=0;orthogonalLoop=1;jettySize=auto;html=1;entryX=0.5;entryY=0;entryDx=0;entryDy=0;" edge="1" parent="1" source="GCc7rd72Zr2Uhg-i7fqf-1" target="GCc7rd72Zr2Uhg-i7fqf-2">
          <mxGeometry relative="1" as="geometry" />
        </mxCell>
        <mxCell id="GCc7rd72Zr2Uhg-i7fqf-1" value="" style="image;html=1;image=img/lib/clip_art/telecommunication/iPhone_128x128.png" vertex="1" parent="1">
          <mxGeometry x="90" y="150" width="80" height="80" as="geometry" />
        </mxCell>
        <mxCell id="GCc7rd72Zr2Uhg-i7fqf-2" value="" style="image;html=1;image=img/lib/clip_art/computers/Server_Tower_128x128.png" vertex="1" parent="1">
          <mxGeometry x="90" y="290" width="80" height="80" as="geometry" />
        </mxCell>
        <mxCell id="GCc7rd72Zr2Uhg-i7fqf-13" value="" style="edgeStyle=orthogonalEdgeStyle;rounded=0;orthogonalLoop=1;jettySize=auto;html=1;" edge="1" parent="1" source="GCc7rd72Zr2Uhg-i7fqf-3" target="GCc7rd72Zr2Uhg-i7fqf-5">
          <mxGeometry relative="1" as="geometry" />
        </mxCell>
        <mxCell id="GCc7rd72Zr2Uhg-i7fqf-25" style="edgeStyle=orthogonalEdgeStyle;rounded=0;orthogonalLoop=1;jettySize=auto;html=1;entryX=0.5;entryY=1;entryDx=0;entryDy=0;" edge="1" parent="1" source="GCc7rd72Zr2Uhg-i7fqf-3" target="GCc7rd72Zr2Uhg-i7fqf-23">
          <mxGeometry relative="1" as="geometry" />
        </mxCell>
        <mxCell id="GCc7rd72Zr2Uhg-i7fqf-3" value="" style="sketch=0;pointerEvents=1;shadow=0;dashed=0;html=1;strokeColor=none;fillColor=#505050;labelPosition=center;verticalLabelPosition=bottom;verticalAlign=top;outlineConnect=0;align=center;shape=mxgraph.office.users.credentials;" vertex="1" parent="1">
          <mxGeometry x="290" y="301" width="56" height="58" as="geometry" />
        </mxCell>
        <mxCell id="GCc7rd72Zr2Uhg-i7fqf-26" style="edgeStyle=orthogonalEdgeStyle;rounded=0;orthogonalLoop=1;jettySize=auto;html=1;entryX=1;entryY=0.5;entryDx=0;entryDy=0;" edge="1" parent="1" source="GCc7rd72Zr2Uhg-i7fqf-4" target="GCc7rd72Zr2Uhg-i7fqf-24">
          <mxGeometry relative="1" as="geometry" />
        </mxCell>
        <mxCell id="GCc7rd72Zr2Uhg-i7fqf-4" value="&lt;b style=&quot;font-weight:normal;&quot; id=&quot;docs-internal-guid-9e6da1bd-7fff-884f-2ec3-e17bcd4a4d77&quot;&gt;&lt;span style=&quot;font-size: 11pt; font-family: Arial, sans-serif; color: rgb(0, 0, 0); background-color: transparent; font-weight: 400; font-style: normal; font-variant: normal; text-decoration: none; vertical-align: baseline;&quot;&gt;&lt;span style=&quot;border:none;display:inline-block;overflow:hidden;width:82px;height:82px;&quot;&gt;&lt;img src=&quot;https://lh7-us.googleusercontent.com/K7d_zg_BDB-1NZBKFG_zPa2ZpOOGBhs8UOcB8ofUqHWBVdGit3B1TP0nQxVwa08pG1KcFYkpLLwxa8QDbMnKuEyMo4V_YEwA6_xggqONxXETpEkJQpp9q9ctr_8tNxkDua4F0fjZ40ps3OyDIK7DnBo&quot; width=&quot;82&quot; height=&quot;82&quot; style=&quot;margin-left:0px;margin-top:0px;&quot;&gt;&lt;/span&gt;&lt;/span&gt;&lt;/b&gt;" style="text;whiteSpace=wrap;html=1;" vertex="1" parent="1">
          <mxGeometry x="420" y="110" width="85" height="80" as="geometry" />
        </mxCell>
        <mxCell id="GCc7rd72Zr2Uhg-i7fqf-17" style="edgeStyle=orthogonalEdgeStyle;rounded=0;orthogonalLoop=1;jettySize=auto;html=1;entryX=0;entryY=0.5;entryDx=0;entryDy=0;" edge="1" parent="1" source="GCc7rd72Zr2Uhg-i7fqf-5" target="GCc7rd72Zr2Uhg-i7fqf-7">
          <mxGeometry relative="1" as="geometry" />
        </mxCell>
        <mxCell id="GCc7rd72Zr2Uhg-i7fqf-18" style="edgeStyle=orthogonalEdgeStyle;rounded=0;orthogonalLoop=1;jettySize=auto;html=1;entryX=0;entryY=0.5;entryDx=0;entryDy=0;" edge="1" parent="1" source="GCc7rd72Zr2Uhg-i7fqf-5" target="GCc7rd72Zr2Uhg-i7fqf-6">
          <mxGeometry relative="1" as="geometry" />
        </mxCell>
        <mxCell id="GCc7rd72Zr2Uhg-i7fqf-5" value="" style="html=1;verticalLabelPosition=bottom;align=center;labelBackgroundColor=#ffffff;verticalAlign=top;strokeWidth=2;strokeColor=#000000;shadow=0;dashed=0;shape=mxgraph.ios7.icons.map;" vertex="1" parent="1">
          <mxGeometry x="440" y="315" width="30" height="30" as="geometry" />
        </mxCell>
        <mxCell id="GCc7rd72Zr2Uhg-i7fqf-6" value="&lt;b style=&quot;font-weight:normal;&quot; id=&quot;docs-internal-guid-e5aaa85a-7fff-fb42-e406-7641818d08ee&quot;&gt;&lt;span style=&quot;font-size: 11pt; font-family: Arial, sans-serif; color: rgb(0, 0, 0); background-color: transparent; font-weight: 400; font-style: normal; font-variant: normal; text-decoration: none; vertical-align: baseline;&quot;&gt;&lt;span style=&quot;border:none;display:inline-block;overflow:hidden;width:63px;height:63px;&quot;&gt;&lt;img src=&quot;https://lh7-us.googleusercontent.com/ykquQ5NsERu5z0iUN3_cvxSebfUfIA4ylOgznwXGZZPmBF1fL9AgsMlnEOeyFCp1KM6kc2OtCMj3HZLcqOx67Y4ldHXQyfc5zEf66NkT-Uor2yH9iLVyVhnBnveWYcYzZCWAGl_3TcqW72v_J4G8zO8&quot; width=&quot;63&quot; height=&quot;63&quot; style=&quot;margin-left:0px;margin-top:0px;&quot;&gt;&lt;/span&gt;&lt;/span&gt;&lt;/b&gt;" style="text;whiteSpace=wrap;html=1;" vertex="1" parent="1">
          <mxGeometry x="640" y="295" width="70" height="70" as="geometry" />
        </mxCell>
        <mxCell id="GCc7rd72Zr2Uhg-i7fqf-7" value="&lt;b style=&quot;font-weight:normal;&quot; id=&quot;docs-internal-guid-29c6d78d-7fff-7773-d6b9-0c9c9031104e&quot;&gt;&lt;span style=&quot;font-size: 11pt; font-family: Arial, sans-serif; color: rgb(0, 0, 0); background-color: transparent; font-weight: 400; font-style: normal; font-variant: normal; text-decoration: none; vertical-align: baseline;&quot;&gt;&lt;span style=&quot;border:none;display:inline-block;overflow:hidden;width:64px;height:64px;&quot;&gt;&lt;img src=&quot;https://lh7-us.googleusercontent.com/SHGFR2fCqD93huKSDuDwYgoJKYllovL1GuTjq8xxDwp6iekA5PZ8ZkDac-vxDvQ9M0ZAUSqcwlYi3GpM1pEBX9eZRQ5v2cIgeSmve81H9-Ec-Ky5BESfWBVHDWJpIBiEwN3DbMZPk1YPf74fNFXmf0c&quot; width=&quot;64&quot; height=&quot;64&quot; style=&quot;margin-left:0px;margin-top:0px;&quot;&gt;&lt;/span&gt;&lt;/span&gt;&lt;/b&gt;" style="text;whiteSpace=wrap;html=1;" vertex="1" parent="1">
          <mxGeometry x="650" y="160" width="70" height="70" as="geometry" />
        </mxCell>
        <mxCell id="GCc7rd72Zr2Uhg-i7fqf-9" value="" style="image;html=1;image=img/lib/clip_art/computers/Database_128x128.png" vertex="1" parent="1">
          <mxGeometry x="334" y="390" width="80" height="80" as="geometry" />
        </mxCell>
        <mxCell id="GCc7rd72Zr2Uhg-i7fqf-12" style="edgeStyle=orthogonalEdgeStyle;rounded=0;orthogonalLoop=1;jettySize=auto;html=1;entryX=-0.071;entryY=0.5;entryDx=0;entryDy=0;entryPerimeter=0;" edge="1" parent="1" source="GCc7rd72Zr2Uhg-i7fqf-2" target="GCc7rd72Zr2Uhg-i7fqf-3">
          <mxGeometry relative="1" as="geometry" />
        </mxCell>
        <mxCell id="GCc7rd72Zr2Uhg-i7fqf-16" style="edgeStyle=orthogonalEdgeStyle;rounded=0;orthogonalLoop=1;jettySize=auto;html=1;entryX=0.412;entryY=1.088;entryDx=0;entryDy=0;entryPerimeter=0;" edge="1" parent="1" source="GCc7rd72Zr2Uhg-i7fqf-5" target="GCc7rd72Zr2Uhg-i7fqf-4">
          <mxGeometry relative="1" as="geometry" />
        </mxCell>
        <mxCell id="GCc7rd72Zr2Uhg-i7fqf-19" value="" style="endArrow=classic;startArrow=classic;html=1;rounded=0;entryX=0.5;entryY=1;entryDx=0;entryDy=0;exitX=0;exitY=0.638;exitDx=0;exitDy=0;strokeColor=#FF6666;exitPerimeter=0;" edge="1" parent="1" source="GCc7rd72Zr2Uhg-i7fqf-9" target="GCc7rd72Zr2Uhg-i7fqf-2">
          <mxGeometry width="50" height="50" relative="1" as="geometry">
            <mxPoint x="350" y="470" as="sourcePoint" />
            <mxPoint x="130" y="380" as="targetPoint" />
            <Array as="points">
              <mxPoint x="130" y="440" />
            </Array>
          </mxGeometry>
        </mxCell>
        <mxCell id="GCc7rd72Zr2Uhg-i7fqf-20" value="" style="endArrow=classic;startArrow=classic;html=1;rounded=0;strokeColor=#FF6666;entryX=0.567;entryY=1.067;entryDx=0;entryDy=0;entryPerimeter=0;exitX=0.988;exitY=0.613;exitDx=0;exitDy=0;exitPerimeter=0;" edge="1" parent="1" source="GCc7rd72Zr2Uhg-i7fqf-9" target="GCc7rd72Zr2Uhg-i7fqf-5">
          <mxGeometry width="50" height="50" relative="1" as="geometry">
            <mxPoint x="414" y="430" as="sourcePoint" />
            <mxPoint x="460" y="359" as="targetPoint" />
            <Array as="points">
              <mxPoint x="457" y="440" />
            </Array>
          </mxGeometry>
        </mxCell>
        <mxCell id="GCc7rd72Zr2Uhg-i7fqf-21" value="database" style="text;html=1;align=center;verticalAlign=middle;resizable=0;points=[];autosize=1;strokeColor=none;fillColor=none;" vertex="1" parent="1">
          <mxGeometry x="339" y="470" width="70" height="30" as="geometry" />
        </mxCell>
        <mxCell id="GCc7rd72Zr2Uhg-i7fqf-22" value="customer app" style="text;html=1;align=center;verticalAlign=middle;resizable=0;points=[];autosize=1;strokeColor=none;fillColor=none;" vertex="1" parent="1">
          <mxGeometry x="80" y="120" width="100" height="30" as="geometry" />
        </mxCell>
        <mxCell id="GCc7rd72Zr2Uhg-i7fqf-23" value="return bike" style="ellipse;whiteSpace=wrap;html=1;" vertex="1" parent="1">
          <mxGeometry x="282" y="210" width="72" height="40" as="geometry" />
        </mxCell>
        <mxCell id="GCc7rd72Zr2Uhg-i7fqf-24" value="rent bike" style="ellipse;whiteSpace=wrap;html=1;" vertex="1" parent="1">
          <mxGeometry x="282" y="130" width="72" height="40" as="geometry" />
        </mxCell>
        <mxCell id="GCc7rd72Zr2Uhg-i7fqf-27" value="" style="endArrow=classic;startArrow=classic;html=1;rounded=0;exitX=1;exitY=0.5;exitDx=0;exitDy=0;entryX=0.6;entryY=-0.05;entryDx=0;entryDy=0;entryPerimeter=0;strokeColor=#FF6666;" edge="1" parent="1" source="GCc7rd72Zr2Uhg-i7fqf-23" target="GCc7rd72Zr2Uhg-i7fqf-9">
          <mxGeometry width="50" height="50" relative="1" as="geometry">
            <mxPoint x="370" y="270" as="sourcePoint" />
            <mxPoint x="400" y="230" as="targetPoint" />
            <Array as="points">
              <mxPoint x="382" y="230" />
            </Array>
          </mxGeometry>
        </mxCell>
        <mxCell id="GCc7rd72Zr2Uhg-i7fqf-28" value="" style="endArrow=classic;startArrow=classic;html=1;rounded=0;exitX=0;exitY=0.5;exitDx=0;exitDy=0;strokeColor=#FF6666;entryX=-0.05;entryY=0.125;entryDx=0;entryDy=0;entryPerimeter=0;" edge="1" parent="1" source="GCc7rd72Zr2Uhg-i7fqf-24" target="GCc7rd72Zr2Uhg-i7fqf-9">
          <mxGeometry width="50" height="50" relative="1" as="geometry">
            <mxPoint x="220" y="252" as="sourcePoint" />
            <mxPoint x="248" y="410" as="targetPoint" />
            <Array as="points">
              <mxPoint x="250" y="150" />
              <mxPoint x="250" y="400" />
            </Array>
          </mxGeometry>
        </mxCell>
        <mxCell id="GCc7rd72Zr2Uhg-i7fqf-29" value="login" style="text;html=1;align=center;verticalAlign=middle;resizable=0;points=[];autosize=1;strokeColor=none;fillColor=none;" vertex="1" parent="1">
          <mxGeometry x="125" y="258" width="50" height="30" as="geometry" />
        </mxCell>
        <mxCell id="GCc7rd72Zr2Uhg-i7fqf-30" value="display&lt;br&gt;customer&lt;br&gt;info" style="text;html=1;align=center;verticalAlign=middle;resizable=0;points=[];autosize=1;strokeColor=none;fillColor=none;" vertex="1" parent="1">
          <mxGeometry x="315" y="258" width="70" height="60" as="geometry" />
        </mxCell>
        <mxCell id="GCc7rd72Zr2Uhg-i7fqf-31" value="map" style="text;html=1;align=center;verticalAlign=middle;resizable=0;points=[];autosize=1;strokeColor=none;fillColor=none;" vertex="1" parent="1">
          <mxGeometry x="445" y="288" width="50" height="30" as="geometry" />
        </mxCell>
        <mxCell id="GCc7rd72Zr2Uhg-i7fqf-32" value="charging&lt;br&gt;stations" style="text;html=1;align=center;verticalAlign=middle;resizable=0;points=[];autosize=1;strokeColor=none;fillColor=none;" vertex="1" parent="1">
          <mxGeometry x="700" y="310" width="70" height="40" as="geometry" />
        </mxCell>
        <mxCell id="GCc7rd72Zr2Uhg-i7fqf-33" value="parking&lt;br&gt;zones" style="text;html=1;align=center;verticalAlign=middle;resizable=0;points=[];autosize=1;strokeColor=none;fillColor=none;" vertex="1" parent="1">
          <mxGeometry x="710" y="175" width="60" height="40" as="geometry" />
        </mxCell>
        <mxCell id="GCc7rd72Zr2Uhg-i7fqf-34" value="bikes" style="text;html=1;align=center;verticalAlign=middle;resizable=0;points=[];autosize=1;strokeColor=none;fillColor=none;" vertex="1" parent="1">
          <mxGeometry x="445" y="130" width="50" height="30" as="geometry" />
        </mxCell>
        <mxCell id="GCc7rd72Zr2Uhg-i7fqf-35" value="customer&lt;br&gt;information" style="text;html=1;align=center;verticalAlign=middle;resizable=0;points=[];autosize=1;strokeColor=none;fillColor=none;" vertex="1" parent="1">
          <mxGeometry x="50" y="390" width="80" height="40" as="geometry" />
        </mxCell>
        <mxCell id="GCc7rd72Zr2Uhg-i7fqf-36" value="bike,&lt;br&gt;charging&lt;br&gt;and&lt;br&gt;parking&lt;br&gt;information" style="text;html=1;align=center;verticalAlign=middle;resizable=0;points=[];autosize=1;strokeColor=none;fillColor=none;" vertex="1" parent="1">
          <mxGeometry x="450" y="359" width="80" height="90" as="geometry" />
        </mxCell>
      </root>
    </mxGraphModel>
  </diagram>
</mxfile>
